<?xml version="1.0" encoding="utf-8"?>

<!DOCTYPE svg PUBLIC "-//W3C//DTD SVG 1.1//EN" "http://www.w3.org/Graphics/SVG/1.1/DTD/svg11.dtd">
<!-- Uploaded to: SVG Repo, www.svgrepo.com, Generator: SVG Repo Mixer Tools -->
<svg height="800px" width="800px" version="1.1" id="_x32_" xmlns="http://www.w3.org/2000/svg" xmlns:xlink="http://www.w3.org/1999/xlink" 
	 viewBox="0 0 512 512"  xml:space="preserve">
<style type="text/css">
	.st0{fill:#000000;}
</style>
<g>
	<path class="st0" d="M447.107,337.625c0,0-45.506,15.215-89.488,0c43.982-19.385,54.604-53.977,54.604-91.354
		c-24.272,6.924-68.246,13.846-97.072-13.838c34.885-15.223,56.119-41.523,54.604-62.276c-53.085,6.924-74.315-1.376-113.756-62.284
		c-39.43,60.908-60.668,69.208-113.752,62.284c-1.52,20.754,19.719,47.054,54.604,62.276c-28.825,27.684-72.8,20.762-97.08,13.838
		c0,37.377,10.625,71.969,54.604,91.354c-43.979,15.215-89.481,0-89.481,0S81.02,441.514,210.5,457.51V512h47.005h47.021v-54.929
		C431.18,439.819,447.107,337.625,447.107,337.625z"/>
	<path class="st0" d="M225.161,66.903L220.05,96.73c-0.411,2.37,0.566,4.765,2.513,6.174c1.947,1.418,4.528,1.604,6.658,0.488
		l26.781-14.083l26.776,14.083c2.13,1.116,4.712,0.929,6.662-0.488c1.943-1.409,2.92-3.804,2.509-6.174l-5.111-29.827l21.666-21.111
		c1.722-1.686,2.338-4.203,1.6-6.484c-0.745-2.288-2.724-3.958-5.103-4.309l-29.945-4.349l-13.39-27.131
		C260.6,1.369,258.405,0,256.002,0c-2.407,0-4.602,1.369-5.669,3.519l-13.39,27.131l-29.945,4.349
		c-2.378,0.35-4.357,2.02-5.103,4.309c-0.737,2.281-0.122,4.798,1.6,6.484L225.161,66.903z"/>
</g>
</svg>